<svg width="190" height="24" viewBox="0 0 190 24" fill="none" xmlns="http://www.w3.org/2000/svg">
<path d="M18.248 23H13.8535L5.29883 8.9668V23H0.904297V1.67188H5.29883L13.8682 15.7344V1.67188H18.248V23ZM29.1025 23.293C26.7783 23.293 24.8838 22.5801 23.4189 21.1543C21.9639 19.7285 21.2363 17.8291 21.2363 15.4561V15.0459C21.2363 13.4541 21.5439 12.0332 22.1592 10.7832C22.7744 9.52344 23.6436 8.55664 24.7666 7.88281C25.8994 7.19922 27.1885 6.85742 28.6338 6.85742C30.8018 6.85742 32.5059 7.54102 33.7461 8.9082C34.9961 10.2754 35.6211 12.2139 35.6211 14.7236V16.4521H25.5283C25.665 17.4873 26.0752 18.3174 26.7588 18.9424C27.4521 19.5674 28.3262 19.8799 29.3809 19.8799C31.0117 19.8799 32.2861 19.2891 33.2041 18.1074L35.2842 20.4365C34.6494 21.335 33.79 22.0381 32.7061 22.5459C31.6221 23.0439 30.4209 23.293 29.1025 23.293ZM28.6191 10.2852C27.7793 10.2852 27.0957 10.5684 26.5684 11.1348C26.0508 11.7012 25.7188 12.5117 25.5723 13.5664H31.4609V13.2295C31.4414 12.292 31.1875 11.5693 30.6992 11.0615C30.2109 10.5439 29.5176 10.2852 28.6191 10.2852ZM45.333 23.293C43.0088 23.293 41.1143 22.5801 39.6494 21.1543C38.1943 19.7285 37.4668 17.8291 37.4668 15.4561V15.0459C37.4668 13.4541 37.7744 12.0332 38.3896 10.7832C39.0049 9.52344 39.874 8.55664 40.9971 7.88281C42.1299 7.19922 43.4189 6.85742 44.8643 6.85742C47.0322 6.85742 48.7363 7.54102 49.9766 8.9082C51.2266 10.2754 51.8516 12.2139 51.8516 14.7236V16.4521H41.7588C41.8955 17.4873 42.3057 18.3174 42.9893 18.9424C43.6826 19.5674 44.5566 19.8799 45.6113 19.8799C47.2422 19.8799 48.5166 19.2891 49.4346 18.1074L51.5146 20.4365C50.8799 21.335 50.0205 22.0381 48.9365 22.5459C47.8525 23.0439 46.6514 23.293 45.333 23.293ZM44.8496 10.2852C44.0098 10.2852 43.3262 10.5684 42.7988 11.1348C42.2812 11.7012 41.9492 12.5117 41.8027 13.5664H47.6914V13.2295C47.6719 12.292 47.418 11.5693 46.9297 11.0615C46.4414 10.5439 45.748 10.2852 44.8496 10.2852ZM53.6094 14.958C53.6094 12.4873 54.1611 10.5195 55.2646 9.05469C56.3779 7.58984 57.8965 6.85742 59.8203 6.85742C61.3633 6.85742 62.6377 7.43359 63.6436 8.58594V0.5H67.8916V23H64.0684L63.8633 21.3154C62.8086 22.6338 61.4512 23.293 59.791 23.293C57.9258 23.293 56.4268 22.5605 55.2939 21.0957C54.1709 19.6211 53.6094 17.5752 53.6094 14.958ZM57.8428 15.2656C57.8428 16.75 58.1016 17.8877 58.6191 18.6787C59.1367 19.4697 59.8887 19.8652 60.875 19.8652C62.1836 19.8652 63.1064 19.3135 63.6436 18.21V11.9551C63.1162 10.8516 62.2031 10.2998 60.9043 10.2998C58.8633 10.2998 57.8428 11.9551 57.8428 15.2656ZM79.8008 23V10.2559H77.4424V7.15039H79.8008V5.80273C79.8008 4.02539 80.3086 2.64844 81.3242 1.67188C82.3496 0.685547 83.7803 0.192383 85.6162 0.192383C86.2021 0.192383 86.9199 0.290039 87.7695 0.485352L87.7256 3.7666C87.374 3.67871 86.9443 3.63477 86.4365 3.63477C84.8447 3.63477 84.0488 4.38184 84.0488 5.87598V7.15039H87.1982V10.2559H84.0488V23H79.8008ZM88.7363 14.9287C88.7363 13.3564 89.0391 11.9551 89.6445 10.7246C90.25 9.49414 91.1191 8.54199 92.252 7.86816C93.3945 7.19434 94.7178 6.85742 96.2217 6.85742C98.3604 6.85742 100.104 7.51172 101.451 8.82031C102.809 10.1289 103.565 11.9062 103.722 14.1523L103.751 15.2363C103.751 17.668 103.072 19.6211 101.715 21.0957C100.357 22.5605 98.5361 23.293 96.251 23.293C93.9658 23.293 92.1396 22.5605 90.7725 21.0957C89.415 19.6309 88.7363 17.6387 88.7363 15.1191V14.9287ZM92.9697 15.2363C92.9697 16.7402 93.2529 17.8926 93.8193 18.6934C94.3857 19.4844 95.1963 19.8799 96.251 19.8799C97.2764 19.8799 98.0771 19.4893 98.6533 18.708C99.2295 17.917 99.5176 16.6572 99.5176 14.9287C99.5176 13.4541 99.2295 12.3115 98.6533 11.501C98.0771 10.6904 97.2666 10.2852 96.2217 10.2852C95.1865 10.2852 94.3857 10.6904 93.8193 11.501C93.2529 12.3018 92.9697 13.5469 92.9697 15.2363ZM115.265 11.1201C114.688 11.042 114.181 11.0029 113.741 11.0029C112.14 11.0029 111.09 11.5449 110.592 12.6289V23H106.358V7.15039H110.357L110.475 9.04004C111.324 7.58496 112.501 6.85742 114.005 6.85742C114.474 6.85742 114.913 6.9209 115.323 7.04785L115.265 11.1201ZM124.127 14.958C124.127 12.4873 124.679 10.5195 125.782 9.05469C126.896 7.58984 128.414 6.85742 130.338 6.85742C131.881 6.85742 133.155 7.43359 134.161 8.58594V0.5H138.409V23H134.586L134.381 21.3154C133.326 22.6338 131.969 23.293 130.309 23.293C128.443 23.293 126.944 22.5605 125.812 21.0957C124.688 19.6211 124.127 17.5752 124.127 14.958ZM128.36 15.2656C128.36 16.75 128.619 17.8877 129.137 18.6787C129.654 19.4697 130.406 19.8652 131.393 19.8652C132.701 19.8652 133.624 19.3135 134.161 18.21V11.9551C133.634 10.8516 132.721 10.2998 131.422 10.2998C129.381 10.2998 128.36 11.9551 128.36 15.2656ZM150.597 11.1201C150.021 11.042 149.513 11.0029 149.073 11.0029C147.472 11.0029 146.422 11.5449 145.924 12.6289V23H141.69V7.15039H145.689L145.807 9.04004C146.656 7.58496 147.833 6.85742 149.337 6.85742C149.806 6.85742 150.245 6.9209 150.655 7.04785L150.597 11.1201ZM157.115 23H152.867V7.15039H157.115V23ZM152.618 3.04883C152.618 2.41406 152.828 1.8916 153.248 1.48145C153.678 1.07129 154.259 0.866211 154.991 0.866211C155.714 0.866211 156.29 1.07129 156.72 1.48145C157.149 1.8916 157.364 2.41406 157.364 3.04883C157.364 3.69336 157.145 4.2207 156.705 4.63086C156.275 5.04102 155.704 5.24609 154.991 5.24609C154.278 5.24609 153.702 5.04102 153.263 4.63086C152.833 4.2207 152.618 3.69336 152.618 3.04883ZM166.549 17.8291L169.493 7.15039H173.917L168.57 23H164.527L159.181 7.15039H163.604L166.549 17.8291ZM182.882 23.293C180.558 23.293 178.663 22.5801 177.198 21.1543C175.743 19.7285 175.016 17.8291 175.016 15.4561V15.0459C175.016 13.4541 175.323 12.0332 175.938 10.7832C176.554 9.52344 177.423 8.55664 178.546 7.88281C179.679 7.19922 180.968 6.85742 182.413 6.85742C184.581 6.85742 186.285 7.54102 187.525 8.9082C188.775 10.2754 189.4 12.2139 189.4 14.7236V16.4521H179.308C179.444 17.4873 179.854 18.3174 180.538 18.9424C181.231 19.5674 182.105 19.8799 183.16 19.8799C184.791 19.8799 186.065 19.2891 186.983 18.1074L189.063 20.4365C188.429 21.335 187.569 22.0381 186.485 22.5459C185.401 23.0439 184.2 23.293 182.882 23.293ZM182.398 10.2852C181.559 10.2852 180.875 10.5684 180.348 11.1348C179.83 11.7012 179.498 12.5117 179.352 13.5664H185.24V13.2295C185.221 12.292 184.967 11.5693 184.479 11.0615C183.99 10.5439 183.297 10.2852 182.398 10.2852Z" fill="#0EC261"/>
</svg>
